<svg width="17" height="22" viewBox="0 0 17 22" fill="none"
  xmlns="http://www.w3.org/2000/svg">
  <path d="M13.9579 11.4105C13.9579 8.82379 16.1164 7.48446 16.2184 7.48446C14.9861 5.72593 13.1329 5.41918 12.41 5.41918C10.8625 5.2147 9.32491 6.34958 8.5 6.34958C7.6754 6.34958 6.44314 5.41918 5.10921 5.41918C3.35802 5.41918 1.82042 6.45182 0.893833 8.00588C-0.959347 11.206 0.374582 15.8578 2.12577 18.4346C2.95068 19.6715 3.97895 21.1235 5.41487 21.0212C6.7488 21.0212 7.26805 20.1929 8.80565 20.1929C10.3433 20.1929 10.8625 21.0212 12.1964 21.0212C13.632 21.0212 14.457 19.784 15.2816 18.4346C16.3101 16.9928 16.7172 15.541 16.7172 15.541C16.6257 15.541 13.9579 14.5084 13.9579 11.4105Z" fill="black"/>
  <path d="M11.3814 3.66125C12.1044 2.73085 12.5117 1.59597 12.41 0.358887C11.3814 0.358887 10.1495 1.08478 9.42657 1.91295C8.80533 2.63884 8.19463 3.9782 8.29631 5.11305C9.42657 5.21529 10.6585 4.59163 11.3814 3.66125Z" fill="black"/>
</svg>
