<svg width="16" height="18" viewBox="0 0 16 18" fill="none"
  xmlns="http://www.w3.org/2000/svg">
  <path d="M0.278369 0.591797C0.0864613 0.871158 0 1.16016 0 1.53588V16.3138C0 16.6895 0.0961005 17.0651 0.278369 17.2579H0.374177L8.62531 8.973V8.87667V8.78033L0.278369 0.591797Z" fill="black"/>
  <path opacity="0.4" d="M11.3384 11.7946L8.62305 9.06839V8.97206V8.87572L11.3384 6.14941H11.4342L14.7156 8.02797C15.6558 8.59636 15.6558 9.44414 14.7156 10.0029L11.3384 11.7946Z" fill="black"/>
  <path opacity="0.6" d="M11.4334 11.7948L8.62223 8.97217L0.371094 17.257C0.649169 17.6327 1.21525 17.6327 1.78134 17.257L11.4334 11.7948Z" fill="black"/>
  <path opacity="0.6" d="M11.4357 6.14049L1.68787 0.581932C1.12179 0.206209 0.651519 0.302572 0.277344 0.581932L8.52848 8.8668L11.4357 6.14049Z" fill="black"/>
</svg>
