<svg width="25" height="29" viewBox="0 0 25 29" fill="none" xmlns="http://www.w3.org/2000/svg">
<path d="M12.2405 28.2326C5.67965 26.058 1.55149 21.4138 0.924897 15.4611C0.648457 12.9363 1.10919 7.26009 1.40406 4.09025C1.4962 2.70805 2.49139 1.54701 3.83672 1.23371C6.80384 0.607117 9.80782 0.275391 12.8486 0.275391C15.8711 0.29382 18.8935 0.607117 21.8421 1.23371C23.1875 1.52858 24.1827 2.68962 24.2932 4.09025L24.3117 4.29297C24.6987 8.55014 25.0673 13.2128 24.754 15.498C23.7957 22.5195 18.3037 26.6661 13.4752 28.2142L12.8486 28.4169L12.2405 28.2326Z" fill="#014278"/>
<path d="M22.4872 4.08922C22.4688 3.53634 22.0818 3.05718 21.5473 2.92818C18.7092 2.32001 15.8342 2.00671 12.9408 1.98828C10.0474 2.00671 7.15404 2.32001 4.33436 2.92818C3.79991 3.05718 3.4129 3.53634 3.39447 4.08922C3.17331 6.4666 2.65729 12.622 2.9153 15.0731C3.50504 20.6203 7.5042 24.3062 12.2958 26.0938C12.5354 26.1859 12.775 26.2597 13.0146 26.3334C13.0698 26.3149 14.6732 25.8726 14.6732 25.8726C14.9865 25.7068 16.0185 25.2092 16.3318 25.0065C19.4095 22.9977 22.0449 18.8879 22.9848 15.0731C23.5377 12.6588 22.7084 6.4666 22.4872 4.08922Z" fill="#014278"/>
<path d="M7.85494 6.44885C7.85494 6.28298 7.78122 6.13555 7.65221 6.0434L5.53285 4.44006C5.49599 4.4032 5.4407 4.38477 5.38541 4.38477C5.31169 4.38477 5.25641 4.40319 5.20112 4.45848L4.90625 4.75335C4.96154 4.69806 5.01683 4.67964 5.09054 4.67964C5.14583 4.67964 5.20112 4.69806 5.23798 4.73492L7.35735 6.33827C7.48635 6.44885 7.56007 6.59628 7.56007 6.76214V7.83105L7.85494 7.53618V6.44885Z" fill="#B0B0B0"/>
<path d="M22.6537 3.94163C22.6352 3.37033 22.2482 2.89117 21.6954 2.76216C18.8388 2.15399 15.9086 1.84069 12.9967 1.82227C10.0665 1.84069 7.15464 2.15399 4.2981 2.76216C3.74522 2.89117 3.35821 3.37033 3.33978 3.94163C3.11863 6.35587 2.60261 12.5665 2.86062 15.0545C3.46878 20.6754 7.44951 24.306 12.278 26.0936C12.5176 26.1858 12.7571 26.2595 12.9967 26.3332L13.1626 26.2779H13.181C13.7892 26.0752 14.3789 25.8356 14.9502 25.5776L6.21475 8.40152L5.34857 7.7565C5.21957 7.66435 5.12742 7.49848 5.12742 7.33262V4.66037C5.12742 4.51294 5.238 4.40236 5.38543 4.38394C5.44072 4.38394 5.49601 4.40237 5.53286 4.43923L7.65223 6.04257C7.78124 6.15315 7.85495 6.30058 7.85495 6.46645V7.53534C8.77642 7.01932 9.82689 6.76131 10.8774 6.77974C11.0064 6.77974 11.1169 6.77974 11.2459 6.77974C13.1626 6.89032 14.5079 8.18037 16.8116 8.29095C16.9406 8.29095 17.0512 8.29095 17.1802 8.29095C18.8388 8.29095 20.0183 7.70121 20.9029 7.20362C20.995 8.56739 21.1056 10.0786 21.1425 11.4424L21.1609 12.7877C20.1104 13.6539 18.3965 14.4095 17.4198 14.4095C15.798 14.4095 14.6922 13.3774 13.1626 13.3774C12.4438 13.3774 11.7435 13.5986 11.1354 13.9856L16.5536 24.693C17.217 24.306 17.8621 23.8453 18.4702 23.3661C20.9398 21.3573 22.6905 18.5929 23.0591 15.0176C23.3908 12.5481 22.8748 6.33744 22.6537 3.94163ZM11.9647 23.79C11.7988 23.7163 11.633 23.6425 11.4671 23.5688C7.85495 21.7996 5.27485 18.8878 4.83255 14.8149C4.72198 13.6907 4.77726 11.6635 4.90627 9.581L11.9647 23.79ZM17.1986 6.54016C17.0696 6.54016 16.959 6.54016 16.83 6.54016C14.5264 6.41116 13.2547 5.21325 11.3197 5.12111C11.2091 5.12111 11.0985 5.12111 11.0064 5.12111C10.4166 5.12111 9.84532 5.19483 9.29244 5.36069L7.59694 4.19964C9.38459 3.94163 11.1907 3.81263 12.9967 3.81263C15.5953 3.83106 18.1754 4.08907 20.7186 4.58666C20.7186 4.58666 20.7739 5.21326 20.7923 5.52655C19.705 6.19001 18.4702 6.54016 17.1986 6.54016ZM17.2355 21.8549L14.2868 16.0312C14.1393 15.7364 13.9366 15.4784 13.697 15.2756C14.6185 15.5705 15.7058 16.2708 17.475 16.2708C19.1705 16.2708 20.5896 15.2572 21.1793 14.7228V14.8149C20.8292 17.782 19.3733 20.1225 17.2355 21.8549Z" fill="white" stroke="white" stroke-width="0.266506"/>
</svg>
