<svg width="25" height="24" viewBox="0 0 25 24" fill="none"
  xmlns="http://www.w3.org/2000/svg">
  <path d="M1.99609 8.5H11.4961" stroke="#144CF5" stroke-width="1.5" stroke-miterlimit="10" stroke-linecap="round" stroke-linejoin="round"/>
  <path opacity="0.4" d="M5.99609 16.5H7.99609" stroke="#144CF5" stroke-width="1.5" stroke-miterlimit="10" stroke-linecap="round" stroke-linejoin="round"/>
  <path opacity="0.4" d="M10.4961 16.5H14.4961" stroke="#144CF5" stroke-width="1.5" stroke-miterlimit="10" stroke-linecap="round" stroke-linejoin="round"/>
  <path d="M21.9961 12.03V16.11C21.9961 19.62 21.1061 20.5 17.5561 20.5H6.43609C2.88609 20.5 1.99609 19.62 1.99609 16.11V7.89C1.99609 4.38 2.88609 3.5 6.43609 3.5H14.4961" stroke="#144CF5" stroke-width="1.5" stroke-linecap="round" stroke-linejoin="round"/>
  <path opacity="0.4" d="M17.2755 7.99272C16.8601 7.83861 16.4915 7.53709 16.257 7.10825C15.721 6.12999 16.0493 4.8569 17.0008 4.26726L18.5687 3.29568C19.5135 2.70604 20.7329 3.02765 21.269 3.99922C21.805 4.97749 21.4767 6.2506 20.5252 6.84024L20.3175 6.98765" stroke="#4C74EF" stroke-width="1.00507" stroke-linecap="round" stroke-linejoin="round"/>
  <path opacity="0.4" d="M22.7486 4.60248C23.164 4.75659 23.5325 5.0581 23.767 5.48693C24.3031 6.4652 23.9747 7.7383 23.0233 8.32794L21.4554 9.2995C20.5106 9.88914 19.2911 9.56753 18.7551 8.59596C18.219 7.61769 18.5474 6.3446 19.4988 5.75496L19.7065 5.60755" stroke="#4C74EF" stroke-width="1.00507" stroke-linecap="round" stroke-linejoin="round"/>
</svg>
