<svg width="18" height="22" viewBox="0 0 18 22" fill="none"
  xmlns="http://www.w3.org/2000/svg">
  <mask id="path-1-inside-1_3207_7186" fill="white">
    <path d="M9 21.8398C4.45 21.8398 0.75 18.1398 0.75 13.5898V8.58984C0.75 4.03984 4.45 0.339844 9 0.339844C13.55 0.339844 17.25 4.03984 17.25 8.58984V13.5898C17.25 18.1398 13.55 21.8398 9 21.8398ZM9 1.83984C5.28 1.83984 2.25 4.86984 2.25 8.58984V13.5898C2.25 17.3098 5.28 20.3398 9 20.3398C12.72 20.3398 15.75 17.3098 15.75 13.5898V8.58984C15.75 4.86984 12.72 1.83984 9 1.83984Z"/>
  </mask>
  <path d="M9 18.8398C6.10685 18.8398 3.75 16.483 3.75 13.5898H-2.25C-2.25 19.7967 2.79315 24.8398 9 24.8398V18.8398ZM3.75 13.5898V8.58984H-2.25V13.5898H3.75ZM3.75 8.58984C3.75 5.6967 6.10685 3.33984 9 3.33984V-2.66016C2.79315 -2.66016 -2.25 2.38299 -2.25 8.58984H3.75ZM9 3.33984C11.8931 3.33984 14.25 5.6967 14.25 8.58984H20.25C20.25 2.38299 15.2069 -2.66016 9 -2.66016V3.33984ZM14.25 8.58984V13.5898H20.25V8.58984H14.25ZM14.25 13.5898C14.25 16.483 11.8931 18.8398 9 18.8398V24.8398C15.2069 24.8398 20.25 19.7967 20.25 13.5898H14.25ZM9 -1.16016C3.62315 -1.16016 -0.75 3.21299 -0.75 8.58984H5.25C5.25 6.5267 6.93685 4.83984 9 4.83984V-1.16016ZM-0.75 8.58984V13.5898H5.25V8.58984H-0.75ZM-0.75 13.5898C-0.75 18.9667 3.62315 23.3398 9 23.3398V17.3398C6.93685 17.3398 5.25 15.653 5.25 13.5898H-0.75ZM9 23.3398C14.3769 23.3398 18.75 18.9667 18.75 13.5898H12.75C12.75 15.653 11.0631 17.3398 9 17.3398V23.3398ZM18.75 13.5898V8.58984H12.75V13.5898H18.75ZM18.75 8.58984C18.75 3.21299 14.3769 -1.16016 9 -1.16016V4.83984C11.0631 4.83984 12.75 6.5267 12.75 8.58984H18.75Z" fill="#144CF5" mask="url(#path-1-inside-1_3207_7186)"/>
  <path d="M9 10.8398C7.76 10.8398 6.75 9.82984 6.75 8.58984V6.58984C6.75 5.34984 7.76 4.33984 9 4.33984C10.24 4.33984 11.25 5.34984 11.25 6.58984V8.58984C11.25 9.82984 10.24 10.8398 9 10.8398ZM9 5.83984C8.59 5.83984 8.25 6.17984 8.25 6.58984V8.58984C8.25 8.99984 8.59 9.33984 9 9.33984C9.41 9.33984 9.75 8.99984 9.75 8.58984V6.58984C9.75 6.17984 9.41 5.83984 9 5.83984Z" fill="#144CF5"/>
  <path d="M9 5.83984C8.59 5.83984 8.25 5.49984 8.25 5.08984V1.08984C8.25 0.679844 8.59 0.339844 9 0.339844C9.41 0.339844 9.75 0.679844 9.75 1.08984V5.08984C9.75 5.49984 9.41 5.83984 9 5.83984Z" fill="#144CF5"/>
</svg>
