<svg width="56" height="56" viewBox="0 0 56 56" fill="none" xmlns="http://www.w3.org/2000/svg">
<path d="M44.7993 42.808C42.45 45.4756 39.4994 47.5455 36.1914 48.8465C32.8834 50.1475 29.3132 50.6421 25.7761 50.2895C22.239 49.9369 18.8367 48.7471 15.8507 46.8187C12.8647 44.8902 10.3807 42.2785 8.60436 39.1995H15.4903C17.0632 40.9617 18.9907 42.3716 21.1466 43.3366C23.3024 44.3017 25.638 44.8001 28 44.7993C37.2628 44.7993 44.7993 37.2639 44.7993 28H28V22.4002H50.4036V44.8038C54.0461 39.9598 56.0108 34.0607 56 28C56 12.5335 43.4665 0 28 0C12.5335 0 0 12.5335 0 28C0 43.4664 12.5335 56 28 56C34.0592 56.01 39.9566 54.0454 44.7993 50.4036V42.808ZM5.59636 28C5.59636 15.6291 15.6257 5.59636 28 5.59636V11.1973C18.7372 11.1973 11.2007 18.7326 11.2007 27.9966L5.59636 28Z" fill="white"/>
</svg>
