<svg width="119" height="43" viewBox="0 0 119 43" fill="none"
  xmlns="http://www.w3.org/2000/svg">
  <path d="M29.2368 31.7923C27.7032 33.534 25.7768 34.8856 23.6171 35.735C21.4574 36.5845 19.1264 36.9074 16.8171 36.6772C14.5078 36.4469 12.2865 35.67 10.3371 34.4108C8.38764 33.1516 6.76608 31.4462 5.60659 29.4359H10.1034C11.5837 31.0906 13.5316 32.2567 15.6892 32.7801C17.8469 33.3034 20.1126 33.1593 22.1865 32.3667C24.2604 31.5741 26.0447 30.1704 27.3033 28.3414C28.562 26.5125 29.2356 24.3444 29.235 22.1242H18.2694V18.4684H32.8927V33.0936C35.6702 29.397 36.9437 24.7852 36.4565 20.1871C35.9693 15.5891 33.7577 11.3465 30.2671 8.31406C26.7766 5.28164 22.2666 3.68471 17.6455 3.84498C13.0245 4.00525 8.63595 5.91081 5.3639 9.17778C2.09184 12.4447 0.179459 16.8304 0.0120024 21.4511C-0.155455 26.0719 1.43446 30.5844 4.46145 34.0797C7.48844 37.5749 11.7276 39.7931 16.3249 40.2875C20.9221 40.7818 25.536 39.5155 29.2368 36.7437V31.7923ZM3.64608 22.1318C3.64608 18.2534 5.18674 14.534 7.92914 11.7916C10.6715 9.04916 14.391 7.50849 18.2694 7.50849V11.1643C15.3622 11.1693 12.5754 12.3264 10.5197 14.3821C8.46402 16.4379 7.30691 19.2246 7.3019 22.1318H3.64608Z" fill="black"/>
  <path d="M50.5155 34.8986C51.3944 37.4898 53.5008 38.6756 56.577 38.6756C59.8691 38.6756 62.5456 36.4802 62.5456 32.222V29.6327C61.2292 31.5629 58.5508 33.0555 55.5219 33.0555C49.5968 33.0555 44.9863 28.1305 44.9863 21.9062C44.9844 15.7178 49.6044 10.7928 55.52 10.7928C58.5508 10.7928 61.2273 12.2419 62.5437 14.174V11.238H67.374V31.8186C67.374 39.4579 62.3259 42.7936 56.4425 42.7936C50.4284 42.7936 46.3464 39.4579 45.7743 34.891L50.5155 34.8986ZM56.3989 15.1988C52.6673 15.1988 49.8582 18.0079 49.8582 21.9156C49.8582 25.8234 52.6673 28.6306 56.3989 28.6306C60.1305 28.6306 62.9396 25.8215 62.9396 21.9156C62.9396 18.0098 60.1305 15.1893 56.3989 15.1893V15.1988Z" fill="black"/>
  <path d="M71.0273 11.2384H75.8557V15.1499C76.6891 12.6477 79.1478 11.0225 81.6501 11.0225C82.2858 11.0169 82.9205 11.0759 83.5443 11.1986V16.1596C82.7662 15.8969 81.9504 15.7632 81.1292 15.7637C78.3636 15.7637 75.8614 18.0898 75.8614 22.4805V33.1923H71.0273V11.2384Z" fill="black"/>
  <path d="M89.633 6.45357C88.7772 6.45357 87.9565 6.11361 87.3514 5.50847C86.7462 4.90333 86.4062 4.08258 86.4062 3.22679C86.4062 2.37099 86.7462 1.55024 87.3514 0.945104C87.9565 0.339965 88.7772 0 89.633 0C90.4888 0 91.3096 0.339965 91.9147 0.945104C92.5199 1.55024 92.8598 2.37099 92.8598 3.22679C92.8598 4.08258 92.5199 4.90333 91.9147 5.50847C91.3096 6.11361 90.4888 6.45357 89.633 6.45357ZM87.2179 11.2383H92.0463V33.1884H87.2179V11.2383Z" fill="black"/>
  <path d="M95.6797 11.2383H100.508V14.18C101.737 12.4241 104.416 10.7988 107.575 10.7988C113.589 10.7988 118.156 15.9359 118.156 22.2133C118.156 28.4907 113.589 33.6259 107.575 33.6259C104.416 33.6259 101.737 32.0026 100.508 30.2467V42.3696H95.6797V11.2383ZM106.698 15.1896C102.791 15.1896 100.114 18.262 100.114 22.2133C100.114 26.1646 102.791 29.2371 106.698 29.2371C110.561 29.2371 113.239 26.1646 113.239 22.2133C113.239 18.262 110.561 15.1896 106.698 15.1896Z" fill="black"/>
</svg>
