<svg width="586" height="631" viewBox="0 0 586 631" fill="none" xmlns="http://www.w3.org/2000/svg">
<g clip-path="url(#clip0_3207_7357)">
<path d="M37.2558 53.2641H53.4315C52.5711 57.308 47.3226 58.5126 38.7185 58.5126C25.5542 58.5126 23.2311 51.9735 23.2311 44.66C23.2311 37.4325 25.4682 31.8399 38.7185 31.8399C48.183 31.8399 52.5711 34.6792 53.4315 37.7767L76.3185 37.7767C75.372 21.3428 62.81 12.9108 38.7185 12.9108C13.9387 12.9108 0.860411 22.8916 0.860411 43.7996C0.860411 64.7936 13.9387 74.8604 36.1373 74.8604C48.7853 74.8604 56.7011 71.2467 61.7775 65.3098L63.4123 74H76.3185L76.3185 41.2183L37.2558 41.2183V53.2641ZM149.321 36.8302C149.321 23.4078 139.942 13.7712 126.262 13.7712L78.9393 13.7712L78.9393 74H101.31V59.8893L114.474 59.8893L122.82 74L149.321 74L138.652 56.7057C145.277 52.8339 149.321 45.6064 149.321 36.8302ZM101.31 32.7003L121.96 32.7003C124.197 32.7003 126.95 32.7003 126.95 36.8302C126.95 40.9602 124.197 40.9602 121.96 40.9602L101.31 40.9602V32.7003ZM174.243 13.7712L151.873 13.7712V74H174.243V13.7712ZM224.991 13.7712L177.668 13.7712V74H200.039V59.8893H224.991C238.671 59.8893 248.05 50.2527 248.05 36.8302C248.05 23.4078 238.671 13.7712 224.991 13.7712ZM220.689 40.9602H200.039V32.7003H220.689C222.926 32.7003 225.679 32.7003 225.679 36.8302C225.679 40.9602 222.926 40.9602 220.689 40.9602ZM284.191 43.7996C284.191 64.7936 295.548 74.8604 322.049 74.8604C346.227 74.8604 358.703 66.3423 359.649 47.2412H336.762C335.902 53.006 331.514 55.9314 322.049 55.9314C308.885 55.9314 306.562 50.2527 306.562 43.7996C306.562 37.4325 308.799 31.8399 322.049 31.8399C331.514 31.8399 335.902 34.6792 336.762 40.3579H359.649C358.703 21.3428 346.141 12.9108 322.049 12.9108C295.548 12.9108 284.191 22.8916 284.191 43.7996ZM412.187 74H436.795L411.843 13.7712L378.631 13.7712L353.679 74H378.287L382.417 63.1588H408.057L412.187 74ZM388.268 47.6714L395.237 29.2586L402.206 47.6714H388.268ZM508.946 36.8302C508.946 23.4078 499.567 13.7712 485.887 13.7712L438.564 13.7712V74H460.935V59.8893L474.099 59.8893L482.445 74L508.946 74L498.277 56.7057C504.902 52.8339 508.946 45.6064 508.946 36.8302ZM460.935 32.7003L481.585 32.7003C483.822 32.7003 486.575 32.7003 486.575 36.8302C486.575 40.9602 483.822 40.9602 481.585 40.9602L460.935 40.9602V32.7003ZM556.239 13.7712L511.497 13.7712V74H556.239C570.78 74 584.46 64.3634 584.46 43.8856C584.46 23.4078 570.78 13.7712 556.239 13.7712ZM549.356 55.071H533.868V32.7003H549.356C554.174 32.7003 562.09 32.7003 562.09 43.8856C562.09 55.071 554.174 55.071 549.356 55.071Z" fill="#141414"/>
<path d="M37.2558 165.684H53.4315C52.5711 169.728 47.3226 170.933 38.7185 170.933C25.5542 170.933 23.2311 164.393 23.2311 157.08C23.2311 149.852 25.4682 144.26 38.7185 144.26C48.183 144.26 52.5711 147.099 53.4315 150.197H76.3185C75.372 133.763 62.81 125.331 38.7185 125.331C13.9387 125.331 0.860411 135.312 0.860411 156.219C0.860411 177.214 13.9387 187.28 36.1373 187.28C48.7853 187.28 56.7011 183.667 61.7775 177.73L63.4123 186.42H76.3185L76.3185 153.638H37.2558V165.684ZM149.321 149.25C149.321 135.828 139.942 126.191 126.262 126.191H78.9393L78.9393 186.42H101.31V172.309L114.474 172.309L122.82 186.42L149.321 186.42L138.652 169.126C145.277 165.254 149.321 158.026 149.321 149.25ZM101.31 145.12L121.96 145.12C124.197 145.12 126.95 145.12 126.95 149.25C126.95 153.38 124.197 153.38 121.96 153.38L101.31 153.38V145.12ZM174.243 126.191H151.873V186.42H174.243V126.191ZM224.991 126.191H177.668V186.42H200.039V172.309H224.991C238.671 172.309 248.05 162.673 248.05 149.25C248.05 135.828 238.671 126.191 224.991 126.191ZM220.689 153.38H200.039V145.12H220.689C222.926 145.12 225.679 145.12 225.679 149.25C225.679 153.38 222.926 153.38 220.689 153.38ZM284.191 156.219C284.191 177.214 295.548 187.28 322.049 187.28C346.227 187.28 358.703 178.762 359.649 159.661H336.762C335.902 165.426 331.514 168.351 322.049 168.351C308.885 168.351 306.562 162.673 306.562 156.219C306.562 149.852 308.799 144.26 322.049 144.26C331.514 144.26 335.902 147.099 336.762 152.778H359.649C358.703 133.763 346.141 125.331 322.049 125.331C295.548 125.331 284.191 135.312 284.191 156.219ZM412.187 186.42H436.795L411.843 126.191L378.631 126.191L353.679 186.42H378.287L382.417 175.579H408.057L412.187 186.42ZM388.268 160.091L395.237 141.679L402.206 160.091H388.268ZM508.946 149.25C508.946 135.828 499.567 126.191 485.887 126.191L438.564 126.191V186.42H460.935V172.309L474.099 172.309L482.445 186.42L508.946 186.42L498.277 169.126C504.902 165.254 508.946 158.026 508.946 149.25ZM460.935 145.12L481.585 145.12C483.822 145.12 486.575 145.12 486.575 149.25C486.575 153.38 483.822 153.38 481.585 153.38L460.935 153.38V145.12ZM556.239 126.191H511.497V186.42H556.239C570.78 186.42 584.46 176.783 584.46 156.306C584.46 135.828 570.78 126.191 556.239 126.191ZM549.356 167.491H533.868V145.12H549.356C554.174 145.12 562.09 145.12 562.09 156.306C562.09 167.491 554.174 167.491 549.356 167.491Z" fill="#141414"/>
<path d="M37.2558 278.104H53.4315C52.5711 282.148 47.3226 283.352 38.7185 283.352C25.5542 283.352 23.2311 276.813 23.2311 269.5C23.2311 262.272 25.4682 256.68 38.7185 256.68C48.183 256.68 52.5711 259.519 53.4315 262.617H76.3185C75.372 246.183 62.81 237.751 38.7185 237.751C13.9387 237.751 0.860411 247.731 0.860411 268.639C0.860411 289.633 13.9387 299.7 36.1373 299.7C48.7853 299.7 56.7011 296.087 61.7775 290.15L63.4123 298.84H76.3185L76.3185 266.058H37.2558V278.104ZM149.321 261.67C149.321 248.248 139.942 238.611 126.262 238.611L78.9393 238.611L78.9393 298.84H101.31V284.729H114.474L122.82 298.84H149.321L138.652 281.546C145.277 277.674 149.321 270.446 149.321 261.67ZM101.31 257.54H121.96C124.197 257.54 126.95 257.54 126.95 261.67C126.95 265.8 124.197 265.8 121.96 265.8H101.31V257.54ZM174.243 238.611H151.873V298.84H174.243V238.611ZM224.991 238.611H177.668V298.84H200.039V284.729H224.991C238.671 284.729 248.05 275.093 248.05 261.67C248.05 248.248 238.671 238.611 224.991 238.611ZM220.689 265.8H200.039V257.54H220.689C222.926 257.54 225.679 257.54 225.679 261.67C225.679 265.8 222.926 265.8 220.689 265.8ZM284.191 268.639C284.191 289.633 295.548 299.7 322.049 299.7C346.227 299.7 358.703 291.182 359.649 272.081H336.762C335.902 277.846 331.514 280.771 322.049 280.771C308.885 280.771 306.562 275.093 306.562 268.639C306.562 262.272 308.799 256.68 322.049 256.68C331.514 256.68 335.902 259.519 336.762 265.198H359.649C358.703 246.183 346.141 237.751 322.049 237.751C295.548 237.751 284.191 247.731 284.191 268.639ZM412.187 298.84H436.795L411.843 238.611H378.631L353.679 298.84H378.287L382.417 287.999H408.057L412.187 298.84ZM388.268 272.511L395.237 254.098L402.206 272.511H388.268ZM508.946 261.67C508.946 248.248 499.567 238.611 485.887 238.611L438.564 238.611V298.84H460.935V284.729H474.099L482.445 298.84L508.946 298.84L498.277 281.546C504.902 277.674 508.946 270.446 508.946 261.67ZM460.935 257.54H481.585C483.822 257.54 486.575 257.54 486.575 261.67C486.575 265.8 483.822 265.8 481.585 265.8H460.935V257.54ZM556.239 238.611H511.497V298.84H556.239C570.78 298.84 584.46 289.203 584.46 268.725C584.46 248.248 570.78 238.611 556.239 238.611ZM549.356 279.911H533.868V257.54H549.356C554.174 257.54 562.09 257.54 562.09 268.725C562.09 279.911 554.174 279.911 549.356 279.911Z" fill="#141414"/>
<path d="M37.2558 390.524H53.4315C52.5711 394.568 47.3226 395.772 38.7185 395.772C25.5542 395.772 23.2311 389.233 23.2311 381.92C23.2311 374.692 25.4682 369.1 38.7185 369.1C48.183 369.1 52.5711 371.939 53.4315 375.036H76.3185C75.372 358.603 62.81 350.171 38.7185 350.171C13.9387 350.171 0.860411 360.151 0.860411 381.059C0.860411 402.053 13.9387 412.12 36.1373 412.12C48.7853 412.12 56.7011 408.506 61.7775 402.57L63.4123 411.26H76.3185L76.3185 378.478H37.2558V390.524ZM149.321 374.09C149.321 360.668 139.942 351.031 126.262 351.031H78.9393L78.9393 411.26H101.31V397.149H114.474L122.82 411.26H149.321L138.652 393.966C145.277 390.094 149.321 382.866 149.321 374.09ZM101.31 369.96H121.96C124.197 369.96 126.95 369.96 126.95 374.09C126.95 378.22 124.197 378.22 121.96 378.22H101.31V369.96ZM174.243 351.031H151.873V411.26H174.243V351.031ZM224.991 351.031L177.668 351.031V411.26H200.039V397.149H224.991C238.671 397.149 248.05 387.512 248.05 374.09C248.05 360.668 238.671 351.031 224.991 351.031ZM220.689 378.22H200.039V369.96H220.689C222.926 369.96 225.679 369.96 225.679 374.09C225.679 378.22 222.926 378.22 220.689 378.22ZM284.191 381.059C284.191 402.053 295.548 412.12 322.049 412.12C346.227 412.12 358.703 403.602 359.649 384.501H336.762C335.902 390.266 331.514 393.191 322.049 393.191C308.885 393.191 306.562 387.512 306.562 381.059C306.562 374.692 308.799 369.1 322.049 369.1C331.514 369.1 335.902 371.939 336.762 377.618H359.649C358.703 358.603 346.141 350.171 322.049 350.171C295.548 350.171 284.191 360.151 284.191 381.059ZM412.187 411.26H436.795L411.843 351.031H378.631L353.679 411.26H378.287L382.417 400.419H408.057L412.187 411.26ZM388.268 384.931L395.237 366.518L402.206 384.931H388.268ZM508.946 374.09C508.946 360.668 499.567 351.031 485.887 351.031H438.564V411.26H460.935V397.149H474.099L482.445 411.26L508.946 411.26L498.277 393.966C504.902 390.094 508.946 382.866 508.946 374.09ZM460.935 369.96H481.585C483.822 369.96 486.575 369.96 486.575 374.09C486.575 378.22 483.822 378.22 481.585 378.22H460.935V369.96ZM556.239 351.031L511.497 351.031V411.26H556.239C570.78 411.26 584.46 401.623 584.46 381.145C584.46 360.668 570.78 351.031 556.239 351.031ZM549.356 392.331H533.868V369.96H549.356C554.174 369.96 562.09 369.96 562.09 381.145C562.09 392.331 554.174 392.331 549.356 392.331Z" fill="#141414"/>
<path d="M37.2558 502.944H53.4315C52.5711 506.988 47.3226 508.192 38.7185 508.192C25.5542 508.192 23.2311 501.653 23.2311 494.34C23.2311 487.112 25.4682 481.52 38.7185 481.52C48.183 481.52 52.5711 484.359 53.4315 487.456H76.3185C75.372 471.023 62.81 462.591 38.7185 462.591C13.9387 462.591 0.860411 472.571 0.860411 493.479C0.860411 514.473 13.9387 524.54 36.1373 524.54C48.7853 524.54 56.7011 520.926 61.7775 514.99L63.4123 523.68H76.3185L76.3185 490.898H37.2558V502.944ZM149.321 486.51C149.321 473.088 139.942 463.451 126.262 463.451H78.9393L78.9393 523.68H101.31V509.569H114.474L122.82 523.68H149.321L138.652 506.385C145.277 502.514 149.321 495.286 149.321 486.51ZM101.31 482.38H121.96C124.197 482.38 126.95 482.38 126.95 486.51C126.95 490.64 124.197 490.64 121.96 490.64H101.31V482.38ZM174.243 463.451H151.873V523.68H174.243V463.451ZM224.991 463.451L177.668 463.451V523.68H200.039V509.569H224.991C238.671 509.569 248.05 499.932 248.05 486.51C248.05 473.088 238.671 463.451 224.991 463.451ZM220.689 490.64H200.039V482.38H220.689C222.926 482.38 225.679 482.38 225.679 486.51C225.679 490.64 222.926 490.64 220.689 490.64ZM284.191 493.479C284.191 514.473 295.548 524.54 322.049 524.54C346.227 524.54 358.703 516.022 359.649 496.921H336.762C335.902 502.686 331.514 505.611 322.049 505.611C308.885 505.611 306.562 499.932 306.562 493.479C306.562 487.112 308.799 481.52 322.049 481.52C331.514 481.52 335.902 484.359 336.762 490.038H359.649C358.703 471.023 346.141 462.591 322.049 462.591C295.548 462.591 284.191 472.571 284.191 493.479ZM412.187 523.68H436.795L411.843 463.451H378.631L353.679 523.68H378.287L382.417 512.839H408.057L412.187 523.68ZM388.268 497.351L395.237 478.938L402.206 497.351H388.268ZM508.946 486.51C508.946 473.088 499.567 463.451 485.887 463.451H438.564V523.68H460.935V509.569H474.099L482.445 523.68H508.946L498.277 506.385C504.902 502.514 508.946 495.286 508.946 486.51ZM460.935 482.38H481.585C483.822 482.38 486.575 482.38 486.575 486.51C486.575 490.64 483.822 490.64 481.585 490.64H460.935V482.38ZM556.239 463.451L511.497 463.451V523.68H556.239C570.78 523.68 584.46 514.043 584.46 493.565C584.46 473.088 570.78 463.451 556.239 463.451ZM549.356 504.751H533.868V482.38H549.356C554.174 482.38 562.09 482.38 562.09 493.565C562.09 504.751 554.174 504.751 549.356 504.751Z" fill="#141414"/>
<path d="M37.2558 615.364H53.4315C52.5711 619.408 47.3226 620.612 38.7185 620.612C25.5542 620.612 23.2311 614.073 23.2311 606.76C23.2311 599.532 25.4682 593.939 38.7185 593.939C48.183 593.939 52.5711 596.779 53.4315 599.876H76.3185C75.372 583.442 62.81 575.01 38.7185 575.01C13.9387 575.01 0.860411 584.991 0.860411 605.899C0.860411 626.893 13.9387 636.96 36.1373 636.96C48.7853 636.96 56.7011 633.346 61.7775 627.409L63.4123 636.1H76.3185L76.3185 603.318H37.2558V615.364ZM149.321 598.93C149.321 585.507 139.942 575.871 126.262 575.871H78.9393L78.9393 636.1H101.31V621.989H114.474L122.82 636.1H149.321L138.652 618.805C145.277 614.934 149.321 607.706 149.321 598.93ZM101.31 594.8H121.96C124.197 594.8 126.95 594.8 126.95 598.93C126.95 603.06 124.197 603.06 121.96 603.06H101.31V594.8ZM174.243 575.871H151.873V636.1H174.243V575.871ZM224.991 575.871H177.668V636.1H200.039V621.989H224.991C238.671 621.989 248.05 612.352 248.05 598.93C248.05 585.507 238.671 575.871 224.991 575.871ZM220.689 603.06H200.039V594.8H220.689C222.926 594.8 225.679 594.8 225.679 598.93C225.679 603.06 222.926 603.06 220.689 603.06ZM284.191 605.899C284.191 626.893 295.548 636.96 322.049 636.96C346.227 636.96 358.703 628.442 359.649 609.341H336.762C335.902 615.106 331.514 618.031 322.049 618.031C308.885 618.031 306.562 612.352 306.562 605.899C306.562 599.532 308.799 593.939 322.049 593.939C331.514 593.939 335.902 596.779 336.762 602.458H359.649C358.703 583.442 346.141 575.01 322.049 575.01C295.548 575.01 284.191 584.991 284.191 605.899ZM412.187 636.1H436.795L411.843 575.871H378.631L353.679 636.1H378.287L382.417 625.258H408.057L412.187 636.1ZM388.268 609.771L395.237 591.358L402.206 609.771H388.268ZM508.946 598.93C508.946 585.507 499.567 575.871 485.887 575.871H438.564V636.1H460.935V621.989H474.099L482.445 636.1H508.946L498.277 618.805C504.902 614.934 508.946 607.706 508.946 598.93ZM460.935 594.8H481.585C483.822 594.8 486.575 594.8 486.575 598.93C486.575 603.06 483.822 603.06 481.585 603.06H460.935V594.8ZM556.239 575.871H511.497V636.1H556.239C570.78 636.1 584.46 626.463 584.46 605.985C584.46 585.507 570.78 575.871 556.239 575.871ZM549.356 617.171H533.868V594.8H549.356C554.174 594.8 562.09 594.8 562.09 605.985C562.09 617.171 554.174 617.171 549.356 617.171Z" fill="#141414"/>
</g>
<defs>
<clipPath id="clip0_3207_7357">
<rect width="586" height="630.26" fill="white"/>
</clipPath>
</defs>
</svg>
