<svg width="586" height="631" viewBox="0 0 586 631" fill="none" xmlns="http://www.w3.org/2000/svg">
<g clip-path="url(#clip0_2908_5584)">
<path d="M37.2558 53.2641H53.4315C52.5711 57.308 47.3226 58.5126 38.7185 58.5126C25.5542 58.5126 23.2311 51.9735 23.2311 44.66C23.2311 37.4325 25.4682 31.8399 38.7185 31.8399C48.183 31.8399 52.5711 34.6792 53.4315 37.7767L76.3185 37.7767C75.372 21.3428 62.81 12.9108 38.7185 12.9108C13.9387 12.9108 0.860411 22.8916 0.860411 43.7996C0.860411 64.7936 13.9387 74.8604 36.1373 74.8604C48.7853 74.8604 56.7011 71.2467 61.7775 65.3098L63.4123 74H76.3185L76.3185 41.2183L37.2558 41.2183V53.2641ZM149.321 36.8302C149.321 23.4078 139.942 13.7712 126.262 13.7712L78.9393 13.7712L78.9393 74H101.31V59.8893L114.474 59.8893L122.82 74L149.321 74L138.652 56.7057C145.277 52.8339 149.321 45.6064 149.321 36.8302ZM101.31 32.7003L121.96 32.7003C124.197 32.7003 126.95 32.7003 126.95 36.8302C126.95 40.9602 124.197 40.9602 121.96 40.9602L101.31 40.9602V32.7003ZM174.243 13.7712L151.873 13.7712V74H174.243V13.7712ZM224.991 13.7712L177.668 13.7712V74H200.039V59.8893H224.991C238.671 59.8893 248.05 50.2527 248.05 36.8302C248.05 23.4078 238.671 13.7712 224.991 13.7712ZM220.689 40.9602H200.039V32.7003H220.689C222.926 32.7003 225.679 32.7003 225.679 36.8302C225.679 40.9602 222.926 40.9602 220.689 40.9602ZM284.191 43.7996C284.191 64.7936 295.548 74.8604 322.049 74.8604C346.227 74.8604 358.703 66.3423 359.649 47.2412H336.762C335.902 53.006 331.514 55.9314 322.049 55.9314C308.885 55.9314 306.562 50.2527 306.562 43.7996C306.562 37.4325 308.799 31.8399 322.049 31.8399C331.514 31.8399 335.902 34.6792 336.762 40.3579H359.649C358.703 21.3428 346.141 12.9108 322.049 12.9108C295.548 12.9108 284.191 22.8916 284.191 43.7996ZM412.187 74H436.795L411.843 13.7712L378.631 13.7712L353.679 74H378.287L382.417 63.1588H408.057L412.187 74ZM388.268 47.6714L395.237 29.2586L402.206 47.6714H388.268ZM508.946 36.8302C508.946 23.4078 499.567 13.7712 485.887 13.7712L438.564 13.7712V74H460.935V59.8893L474.099 59.8893L482.445 74L508.946 74L498.277 56.7057C504.902 52.8339 508.946 45.6064 508.946 36.8302ZM460.935 32.7003L481.585 32.7003C483.822 32.7003 486.575 32.7003 486.575 36.8302C486.575 40.9602 483.822 40.9602 481.585 40.9602L460.935 40.9602V32.7003ZM556.239 13.7712L511.497 13.7712V74H556.239C570.78 74 584.46 64.3634 584.46 43.8856C584.46 23.4078 570.78 13.7712 556.239 13.7712ZM549.356 55.071H533.868V32.7003H549.356C554.174 32.7003 562.09 32.7003 562.09 43.8856C562.09 55.071 554.174 55.071 549.356 55.071Z" fill="#121212"/>
<path d="M37.2558 142.865H53.4315C52.5711 146.909 47.3226 148.114 38.7185 148.114C25.5542 148.114 23.2311 141.575 23.2311 134.261C23.2311 127.034 25.4682 121.441 38.7185 121.441C48.183 121.441 52.5711 124.281 53.4315 127.378L76.3185 127.378C75.372 110.944 62.81 102.512 38.7185 102.512C13.9387 102.512 0.860411 112.493 0.860411 133.401C0.860411 154.395 13.9387 164.462 36.1373 164.462C48.7853 164.462 56.7011 160.848 61.7775 154.911L63.4123 163.601H76.3185L76.3185 130.82H37.2558V142.865ZM149.321 126.432C149.321 113.009 139.942 103.373 126.262 103.373H78.9393L78.9393 163.601H101.31V149.491L114.474 149.491L122.82 163.601L149.321 163.601L138.652 146.307C145.277 142.435 149.321 135.208 149.321 126.432ZM101.31 122.302L121.96 122.302C124.197 122.302 126.95 122.302 126.95 126.432C126.95 130.562 124.197 130.562 121.96 130.562L101.31 130.562V122.302ZM174.243 103.373H151.873V163.601H174.243V103.373ZM224.991 103.373H177.668V163.601H200.039V149.491H224.991C238.671 149.491 248.05 139.854 248.05 126.432C248.05 113.009 238.671 103.373 224.991 103.373ZM220.689 130.562H200.039V122.302H220.689C222.926 122.302 225.679 122.302 225.679 126.432C225.679 130.562 222.926 130.562 220.689 130.562ZM284.191 133.401C284.191 154.395 295.548 164.462 322.049 164.462C346.227 164.462 358.703 155.944 359.649 136.843H336.762C335.902 142.607 331.514 145.533 322.049 145.533C308.885 145.533 306.562 139.854 306.562 133.401C306.562 127.034 308.799 121.441 322.049 121.441C331.514 121.441 335.902 124.281 336.762 129.959H359.649C358.703 110.944 346.141 102.512 322.049 102.512C295.548 102.512 284.191 112.493 284.191 133.401ZM412.187 163.601H436.795L411.843 103.373L378.631 103.373L353.679 163.601H378.287L382.417 152.76H408.057L412.187 163.601ZM388.268 137.273L395.237 118.86L402.206 137.273H388.268ZM508.946 126.432C508.946 113.009 499.567 103.373 485.887 103.373L438.564 103.373V163.601H460.935V149.491L474.099 149.491L482.445 163.601L508.946 163.601L498.277 146.307C504.902 142.435 508.946 135.208 508.946 126.432ZM460.935 122.302L481.585 122.302C483.822 122.302 486.575 122.302 486.575 126.432C486.575 130.562 483.822 130.562 481.585 130.562L460.935 130.562V122.302ZM556.239 103.373H511.497V163.601H556.239C570.78 163.601 584.46 153.965 584.46 133.487C584.46 113.009 570.78 103.373 556.239 103.373ZM549.356 144.672H533.868V122.302H549.356C554.174 122.302 562.09 122.302 562.09 133.487C562.09 144.672 554.174 144.672 549.356 144.672Z" fill="#121212"/>
<path d="M37.2558 232.466H53.4315C52.5711 236.51 47.3226 237.715 38.7185 237.715C25.5542 237.715 23.2311 231.176 23.2311 223.862C23.2311 216.635 25.4682 211.042 38.7185 211.042C48.183 211.042 52.5711 213.882 53.4315 216.979H76.3185C75.372 200.545 62.81 192.113 38.7185 192.113C13.9387 192.113 0.860411 202.094 0.860411 223.002C0.860411 243.996 13.9387 254.063 36.1373 254.063C48.7853 254.063 56.7011 250.449 61.7775 244.512L63.4123 253.202H76.3185L76.3185 220.421H37.2558V232.466ZM149.321 216.033C149.321 202.61 139.942 192.974 126.262 192.974L78.9393 192.974L78.9393 253.202H101.31V239.092L114.474 239.092L122.82 253.202L149.321 253.202L138.652 235.908C145.277 232.036 149.321 224.809 149.321 216.033ZM101.31 211.903L121.96 211.903C124.197 211.903 126.95 211.903 126.95 216.033C126.95 220.163 124.197 220.163 121.96 220.163L101.31 220.163V211.903ZM174.243 192.974H151.873V253.202H174.243V192.974ZM224.991 192.974H177.668V253.202H200.039V239.092H224.991C238.671 239.092 248.05 229.455 248.05 216.033C248.05 202.61 238.671 192.974 224.991 192.974ZM220.689 220.163H200.039V211.903H220.689C222.926 211.903 225.679 211.903 225.679 216.033C225.679 220.163 222.926 220.163 220.689 220.163ZM284.191 223.002C284.191 243.996 295.548 254.063 322.049 254.063C346.227 254.063 358.703 245.545 359.649 226.444H336.762C335.902 232.208 331.514 235.134 322.049 235.134C308.885 235.134 306.562 229.455 306.562 223.002C306.562 216.635 308.799 211.042 322.049 211.042C331.514 211.042 335.902 213.882 336.762 219.56H359.649C358.703 200.545 346.141 192.113 322.049 192.113C295.548 192.113 284.191 202.094 284.191 223.002ZM412.187 253.202H436.795L411.843 192.974H378.631L353.679 253.202H378.287L382.417 242.361H408.057L412.187 253.202ZM388.268 226.874L395.237 208.461L402.206 226.874H388.268ZM508.946 216.033C508.946 202.61 499.567 192.974 485.887 192.974L438.564 192.974V253.202H460.935V239.092L474.099 239.092L482.445 253.202L508.946 253.202L498.277 235.908C504.902 232.036 508.946 224.809 508.946 216.033ZM460.935 211.903L481.585 211.903C483.822 211.903 486.575 211.903 486.575 216.033C486.575 220.163 483.822 220.163 481.585 220.163L460.935 220.163V211.903ZM556.239 192.974H511.497V253.202H556.239C570.78 253.202 584.46 243.566 584.46 223.088C584.46 202.61 570.78 192.974 556.239 192.974ZM549.356 234.273H533.868V211.903H549.356C554.174 211.903 562.09 211.903 562.09 223.088C562.09 234.273 554.174 234.273 549.356 234.273Z" fill="#121212"/>
<path d="M37.2558 322.068H53.4315C52.5711 326.112 47.3226 327.316 38.7185 327.316C25.5542 327.316 23.2311 320.777 23.2311 313.464C23.2311 306.236 25.4682 300.644 38.7185 300.644C48.183 300.644 52.5711 303.483 53.4315 306.58H76.3185C75.372 290.147 62.81 281.715 38.7185 281.715C13.9387 281.715 0.860411 291.695 0.860411 312.603C0.860411 333.597 13.9387 343.664 36.1373 343.664C48.7853 343.664 56.7011 340.05 61.7775 334.114L63.4123 342.804H76.3185L76.3185 310.022H37.2558V322.068ZM149.321 305.634C149.321 292.212 139.942 282.575 126.262 282.575H78.9393L78.9393 342.804H101.31V328.693H114.474L122.82 342.804H149.321L138.652 325.509C145.277 321.638 149.321 314.41 149.321 305.634ZM101.31 301.504H121.96C124.197 301.504 126.95 301.504 126.95 305.634C126.95 309.764 124.197 309.764 121.96 309.764H101.31V301.504ZM174.243 282.575H151.873V342.804H174.243V282.575ZM224.991 282.575L177.668 282.575V342.804H200.039V328.693H224.991C238.671 328.693 248.05 319.056 248.05 305.634C248.05 292.212 238.671 282.575 224.991 282.575ZM220.689 309.764H200.039V301.504H220.689C222.926 301.504 225.679 301.504 225.679 305.634C225.679 309.764 222.926 309.764 220.689 309.764ZM284.191 312.603C284.191 333.597 295.548 343.664 322.049 343.664C346.227 343.664 358.703 335.146 359.649 316.045H336.762C335.902 321.81 331.514 324.735 322.049 324.735C308.885 324.735 306.562 319.056 306.562 312.603C306.562 306.236 308.799 300.644 322.049 300.644C331.514 300.644 335.902 303.483 336.762 309.162H359.649C358.703 290.147 346.141 281.715 322.049 281.715C295.548 281.715 284.191 291.695 284.191 312.603ZM412.187 342.804H436.795L411.843 282.575H378.631L353.679 342.804H378.287L382.417 331.963H408.057L412.187 342.804ZM388.268 316.475L395.237 298.062L402.206 316.475H388.268ZM508.946 305.634C508.946 292.212 499.567 282.575 485.887 282.575H438.564V342.804H460.935V328.693H474.099L482.445 342.804L508.946 342.804L498.277 325.509C504.902 321.638 508.946 314.41 508.946 305.634ZM460.935 301.504H481.585C483.822 301.504 486.575 301.504 486.575 305.634C486.575 309.764 483.822 309.764 481.585 309.764H460.935V301.504ZM556.239 282.575L511.497 282.575V342.804H556.239C570.78 342.804 584.46 333.167 584.46 312.689C584.46 292.212 570.78 282.575 556.239 282.575ZM549.356 323.875H533.868V301.504H549.356C554.174 301.504 562.09 301.504 562.09 312.689C562.09 323.875 554.174 323.875 549.356 323.875Z" fill="#121212"/>
<path d="M37.2558 411.669H53.4315C52.5711 415.713 47.3226 416.917 38.7185 416.917C25.5542 416.917 23.2311 410.378 23.2311 403.065C23.2311 395.837 25.4682 390.245 38.7185 390.245C48.183 390.245 52.5711 393.084 53.4315 396.181H76.3185C75.372 379.748 62.81 371.316 38.7185 371.316C13.9387 371.316 0.860411 381.296 0.860411 402.204C0.860411 423.198 13.9387 433.265 36.1373 433.265C48.7853 433.265 56.7011 429.651 61.7775 423.715L63.4123 432.405H76.3185L76.3185 399.623H37.2558V411.669ZM149.321 395.235C149.321 381.813 139.942 372.176 126.262 372.176H78.9393L78.9393 432.405H101.31V418.294H114.474L122.82 432.405H149.321L138.652 415.111C145.277 411.239 149.321 404.011 149.321 395.235ZM101.31 391.105H121.96C124.197 391.105 126.95 391.105 126.95 395.235C126.95 399.365 124.197 399.365 121.96 399.365H101.31V391.105ZM174.243 372.176H151.873V432.405H174.243V372.176ZM224.991 372.176L177.668 372.176V432.405H200.039V418.294H224.991C238.671 418.294 248.05 408.657 248.05 395.235C248.05 381.813 238.671 372.176 224.991 372.176ZM220.689 399.365H200.039V391.105H220.689C222.926 391.105 225.679 391.105 225.679 395.235C225.679 399.365 222.926 399.365 220.689 399.365ZM284.191 402.204C284.191 423.198 295.548 433.265 322.049 433.265C346.227 433.265 358.703 424.747 359.649 405.646H336.762C335.902 411.411 331.514 414.336 322.049 414.336C308.885 414.336 306.562 408.657 306.562 402.204C306.562 395.837 308.799 390.245 322.049 390.245C331.514 390.245 335.902 393.084 336.762 398.763H359.649C358.703 379.748 346.141 371.316 322.049 371.316C295.548 371.316 284.191 381.296 284.191 402.204ZM412.187 432.405H436.795L411.843 372.176H378.631L353.679 432.405H378.287L382.417 421.564H408.057L412.187 432.405ZM388.268 406.076L395.237 387.663L402.206 406.076H388.268ZM508.946 395.235C508.946 381.813 499.567 372.176 485.887 372.176H438.564V432.405H460.935V418.294H474.099L482.445 432.405L508.946 432.405L498.277 415.111C504.902 411.239 508.946 404.011 508.946 395.235ZM460.935 391.105H481.585C483.822 391.105 486.575 391.105 486.575 395.235C486.575 399.365 483.822 399.365 481.585 399.365H460.935V391.105ZM556.239 372.176L511.497 372.176V432.405H556.239C570.78 432.405 584.46 422.768 584.46 402.29C584.46 381.813 570.78 372.176 556.239 372.176ZM549.356 413.476H533.868V391.105H549.356C554.174 391.105 562.09 391.105 562.09 402.29C562.09 413.476 554.174 413.476 549.356 413.476Z" fill="#121212"/>
<path d="M37.2558 501.27H53.4315C52.5711 505.314 47.3226 506.519 38.7185 506.519C25.5542 506.519 23.2311 499.98 23.2311 492.666C23.2311 485.439 25.4682 479.846 38.7185 479.846C48.183 479.846 52.5711 482.685 53.4315 485.783H76.3185C75.372 469.349 62.81 460.917 38.7185 460.917C13.9387 460.917 0.860411 470.898 0.860411 491.806C0.860411 512.8 13.9387 522.867 36.1373 522.867C48.7853 522.867 56.7011 519.253 61.7775 513.316L63.4123 522.006H76.3185L76.3185 489.224H37.2558V501.27ZM149.321 484.836C149.321 471.414 139.942 461.777 126.262 461.777H78.9393L78.9393 522.006H101.31V507.895H114.474L122.82 522.006H149.321L138.652 504.712C145.277 500.84 149.321 493.613 149.321 484.836ZM101.31 480.706H121.96C124.197 480.706 126.95 480.706 126.95 484.836C126.95 488.966 124.197 488.966 121.96 488.966H101.31V480.706ZM174.243 461.777H151.873V522.006H174.243V461.777ZM224.991 461.777L177.668 461.777V522.006H200.039V507.895H224.991C238.671 507.895 248.05 498.259 248.05 484.836C248.05 471.414 238.671 461.777 224.991 461.777ZM220.689 488.966H200.039V480.706H220.689C222.926 480.706 225.679 480.706 225.679 484.836C225.679 488.966 222.926 488.966 220.689 488.966ZM284.191 491.806C284.191 512.8 295.548 522.867 322.049 522.867C346.227 522.867 358.703 514.348 359.649 495.247H336.762C335.902 501.012 331.514 503.937 322.049 503.937C308.885 503.937 306.562 498.259 306.562 491.806C306.562 485.439 308.799 479.846 322.049 479.846C331.514 479.846 335.902 482.685 336.762 488.364H359.649C358.703 469.349 346.141 460.917 322.049 460.917C295.548 460.917 284.191 470.898 284.191 491.806ZM412.187 522.006H436.795L411.843 461.777H378.631L353.679 522.006H378.287L382.417 511.165H408.057L412.187 522.006ZM388.268 495.678L395.237 477.265L402.206 495.678H388.268ZM508.946 484.836C508.946 471.414 499.567 461.777 485.887 461.777H438.564V522.006H460.935V507.895H474.099L482.445 522.006H508.946L498.277 504.712C504.902 500.84 508.946 493.613 508.946 484.836ZM460.935 480.706H481.585C483.822 480.706 486.575 480.706 486.575 484.836C486.575 488.966 483.822 488.966 481.585 488.966H460.935V480.706ZM556.239 461.777L511.497 461.777V522.006H556.239C570.78 522.006 584.46 512.37 584.46 491.892C584.46 471.414 570.78 461.777 556.239 461.777ZM549.356 503.077H533.868V480.706H549.356C554.174 480.706 562.09 480.706 562.09 491.892C562.09 503.077 554.174 503.077 549.356 503.077Z" fill="#121212"/>
<path d="M37.2558 590.872H53.4315C52.5711 594.915 47.3226 596.12 38.7185 596.12C25.5542 596.12 23.2311 589.581 23.2311 582.267C23.2311 575.04 25.4682 569.447 38.7185 569.447C48.183 569.447 52.5711 572.287 53.4315 575.384H76.3185C75.372 558.95 62.81 550.518 38.7185 550.518C13.9387 550.518 0.860411 560.499 0.860411 581.407C0.860411 602.401 13.9387 612.468 36.1373 612.468C48.7853 612.468 56.7011 608.854 61.7775 602.917L63.4123 611.607H76.3185L76.3185 578.826H37.2558V590.872ZM149.321 574.438C149.321 561.015 139.942 551.379 126.262 551.379H78.9393L78.9393 611.607H101.31V597.497H114.474L122.82 611.607H149.321L138.652 594.313C145.277 590.441 149.321 583.214 149.321 574.438ZM101.31 570.308H121.96C124.197 570.308 126.95 570.308 126.95 574.438C126.95 578.568 124.197 578.568 121.96 578.568H101.31V570.308ZM174.243 551.379H151.873V611.607H174.243V551.379ZM224.991 551.379H177.668V611.607H200.039V597.497H224.991C238.671 597.497 248.05 587.86 248.05 574.438C248.05 561.015 238.671 551.379 224.991 551.379ZM220.689 578.568H200.039V570.308H220.689C222.926 570.308 225.679 570.308 225.679 574.438C225.679 578.568 222.926 578.568 220.689 578.568ZM284.191 581.407C284.191 602.401 295.548 612.468 322.049 612.468C346.227 612.468 358.703 603.95 359.649 584.849H336.762C335.902 590.613 331.514 593.539 322.049 593.539C308.885 593.539 306.562 587.86 306.562 581.407C306.562 575.04 308.799 569.447 322.049 569.447C331.514 569.447 335.902 572.287 336.762 577.965H359.649C358.703 558.95 346.141 550.518 322.049 550.518C295.548 550.518 284.191 560.499 284.191 581.407ZM412.187 611.607H436.795L411.843 551.379H378.631L353.679 611.607H378.287L382.417 600.766H408.057L412.187 611.607ZM388.268 585.279L395.237 566.866L402.206 585.279H388.268ZM508.946 574.438C508.946 561.015 499.567 551.379 485.887 551.379H438.564V611.607H460.935V597.497H474.099L482.445 611.607H508.946L498.277 594.313C504.902 590.441 508.946 583.214 508.946 574.438ZM460.935 570.308H481.585C483.822 570.308 486.575 570.308 486.575 574.438C486.575 578.568 483.822 578.568 481.585 578.568H460.935V570.308ZM556.239 551.379H511.497V611.607H556.239C570.78 611.607 584.46 601.971 584.46 581.493C584.46 561.015 570.78 551.379 556.239 551.379ZM549.356 592.678H533.868V570.308H549.356C554.174 570.308 562.09 570.308 562.09 581.493C562.09 592.678 554.174 592.678 549.356 592.678Z" fill="#121212"/>
</g>
<defs>
<clipPath id="clip0_2908_5584">
<rect width="586" height="630.26" fill="white"/>
</clipPath>
</defs>
</svg>
