<svg width="31" height="33" viewBox="0 0 31 33" fill="none" xmlns="http://www.w3.org/2000/svg">
<path d="M28.3286 17.663L28.3767 17.6149L28.3286 17.5668L28.3232 17.5614L14.0003 3.23846V0.830201L30.7931 17.6231L15.8365 32.5797L0.860825 17.604L6.89311 11.5717H9.34625L3.3675 17.5505L3.31941 17.5986L3.3675 17.6467L3.37838 17.6575L15.7939 30.0716L15.7939 30.0717L15.8088 30.0866L15.8569 30.1347L15.905 30.0866L28.3286 17.663Z" fill="#FE6309" stroke="white" stroke-width="0.136015"/>
<path d="M13.9952 7.62909V5.22083L26.3975 17.6231L17.1244 26.8975L17.1244 26.8975L15.8423 28.1783L14.5819 26.9179L5.26805 17.6041L11.3003 11.5718H13.7535L7.77473 17.5505L7.72663 17.5986L7.77473 17.6467L7.78561 17.6576L7.83369 17.6095L7.78561 17.6576L15.8146 25.6852L15.8627 25.7333L15.9108 25.6852L23.933 17.663L23.981 17.6149L23.933 17.5669L13.9952 7.62909Z" fill="#FE6309" stroke="white" stroke-width="0.136015"/>
<path d="M22.0195 17.6222L17.1017 22.5319L17.1017 22.5319L15.8222 23.8127L14.5619 22.5523L9.6128 17.6032L14.5592 12.6609L14.5592 12.6609L15.8114 11.4087L17.0853 12.6826L17.0854 12.6827L22.0195 17.6222ZM15.7973 21.3292L15.8455 21.3774L15.8936 21.329L19.5456 17.6552L19.5934 17.6072L19.5455 17.5592L15.8731 13.8868L15.825 13.8387L15.7769 13.8868L12.114 17.5497L12.0659 17.5978L12.114 17.6459L12.1249 17.6567L12.1249 17.6567L15.7973 21.3292Z" fill="#FE6309" stroke="white" stroke-width="0.136015"/>
</svg>
