<svg width="31" height="32" viewBox="0 0 31 32" fill="none" xmlns="http://www.w3.org/2000/svg">
<g clip-path="url(#clip0)">
<path fill-rule="evenodd" clip-rule="evenodd" d="M0.633789 0.574219H30.998V31.3043H0.633789V0.574219Z" fill="#D94F00"/>
<path fill-rule="evenodd" clip-rule="evenodd" d="M17.9105 6.53125H25.6944V14.3308H17.9105V6.53125ZM8.5002 18.2761V19.0391H9.84176V23.0759H10.7668V19.0083H12.0159V18.2453L8.5002 18.2766V18.2761ZM7.80929 19.2221V18.459C7.06717 18.1235 6.21373 18.0221 5.33991 18.459C3.90688 19.0998 3.85567 22.2726 5.28922 22.8929C6.11234 23.31 7.82915 23.1166 8.00214 22.7503V20.2385H6.29526V20.8997H7.04679V22.2219C4.57741 23.4218 4.12011 17.6558 7.80929 19.2221ZM13.5205 20.8589H14.4042C15.1359 20.8897 15.3293 22.2726 14.3739 22.2621H13.5205V20.8589ZM13.5205 18.9168H14.4042C15.1359 19.0491 14.872 20.1372 14.3739 20.1675H13.5205V18.9168ZM12.6059 18.1747V23.0351H15.0345C16.2742 22.5877 16.3254 20.6661 15.0345 20.4622C16.2235 20.3305 16.2846 18.1439 14.2318 18.1439L12.6059 18.1747ZM16.894 19.5372V20.2589C17.5441 20.076 18.9568 19.5675 18.8246 20.6457C17.5849 20.5641 16.7414 20.7878 16.5992 21.5603C16.3656 23.2285 18.154 23.391 18.9061 22.5673V22.964H19.7595V20.0352C19.5463 19.0893 18.1342 18.9675 16.894 19.5372ZM17.6152 21.4186C17.8086 21.1641 18.4284 21.174 18.8449 21.2963V21.9371C18.1645 22.6687 17.067 22.3337 17.6157 21.4181L17.6152 21.4186ZM21.5281 20.4016C21.7518 20.1575 22.9407 19.6997 23.1236 20.4016V22.9844H24.0785V20.249C23.8752 19.1097 22.7876 18.9064 21.4669 19.6793V19.2524H20.5628V23.0048H21.5176L21.5281 20.4016ZM27.0762 19.2116L25.8266 20.8892L27.1478 22.9536L28.296 22.9233L26.8431 20.9404L28.1539 19.2419L27.0767 19.2116H27.0762ZM24.7903 17.9808H25.7352V22.9536H24.7898V17.9813L24.7903 17.9808Z" fill="white"/>
<path fill-rule="evenodd" clip-rule="evenodd" d="M17.9102 6.53125H25.6941V14.3308H17.9102V6.53125Z" fill="white"/>
</g>
<defs>
<clipPath id="clip0">
<rect width="30.3643" height="30.7301" fill="white" transform="translate(0.633789 0.574219)"/>
</clipPath>
</defs>
</svg>
