<svg width="61" height="39" viewBox="0 0 61 39" fill="none" xmlns="http://www.w3.org/2000/svg">
<path d="M38.3746 4.95703H22.0771V34.237H38.3746V4.95703Z" fill="#FF5A00"/>
<path d="M23.1615 19.5966C23.1615 13.6478 25.9581 8.368 30.2495 4.95662C27.0912 2.47342 23.1073 0.972656 18.7617 0.972656C8.46725 0.972656 0.137695 9.30221 0.137695 19.5966C0.137695 29.891 8.46725 38.2206 18.7617 38.2206C23.1073 38.2206 27.0912 36.7198 30.2495 34.2366C25.9521 30.8735 23.1615 25.5454 23.1615 19.5966Z" fill="#EB001B"/>
<path d="M60.3618 19.5966C60.3618 29.891 52.0322 38.2206 41.7378 38.2206C37.3922 38.2206 33.4082 36.7198 30.25 34.2366C34.5956 30.8192 37.338 25.5454 37.338 19.5966C37.338 13.6478 34.5413 8.368 30.25 4.95662C33.4022 2.47342 37.3862 0.972656 41.7318 0.972656C52.0322 0.972656 60.3618 9.35646 60.3618 19.5966Z" fill="#F79E1B"/>
</svg>
